<?xml version="1.0" standalone="no"?><!DOCTYPE svg PUBLIC "-//W3C//DTD SVG 1.1//EN" "http://www.w3.org/Graphics/SVG/1.1/DTD/svg11.dtd"><svg t="1652370726892" class="icon" viewBox="0 0 1024 1024" version="1.1" xmlns="http://www.w3.org/2000/svg" p-id="3439" xmlns:xlink="http://www.w3.org/1999/xlink" width="200" height="200"><defs><style type="text/css">@font-face { font-family: feedback-iconfont; src: url("//at.alicdn.com/t/font_1031158_u69w8yhxdu.woff2?t=1630033759944") format("woff2"), url("//at.alicdn.com/t/font_1031158_u69w8yhxdu.woff?t=1630033759944") format("woff"), url("//at.alicdn.com/t/font_1031158_u69w8yhxdu.ttf?t=1630033759944") format("truetype"); }
</style></defs><path d="M418.142 135.24v743.093c0 11.298-9.158 20.467-20.466 20.467-11.297 0-20.466-9.17-20.466-20.467V170.308L153.935 393.593c-7.992 7.992-20.957 7.992-28.95 0s-7.991-20.957 0-28.95l258.211-258.2a20.466 20.466 0 0 1 22.298-4.44 20.47 20.47 0 0 1 12.638 18.89l0.01 14.346z m496.816 499.352l-258.211 258.21a20.479 20.479 0 0 1-14.48 5.998c-2.63 0-5.28-0.512-7.818-1.556a20.473 20.473 0 0 1-12.638-18.9l-0.01-14.347V120.913c0-11.308 9.158-20.466 20.466-20.466 11.297 0 20.466 9.158 20.466 20.466v708.015l223.275-223.275c7.992-7.992 20.957-7.992 28.95 0s7.992 20.947 0 28.94z" p-id="3440" fill="#A305A8"></path></svg>